PathFileType	4	(X/Y/Z)	/home/nbianco/projects/addbio/data/HamnerRunning2013/Processed/subject08//results/MarkerData/run200.trc
DataRate	CameraRate	NumFrames	NumMarkers	Units	OrigDataRate	OrigDataStartFrame	OrigNumFrames
100	100	9	42	m	100	188	215
Frame#	Time	C7			CLAV			LACR			LASI			LCAL			LFAradius			LFAsuperior			LFAulna			LLEL			LMEL			LMT5			LPSI			LTB1			LTB2			LTB3			LTH1			LTH2			LTH3			LTOE			LUA1			LUA2			LUA3			RACR			RASI			RCAL			RFAradius			RFAsuperior			RFAulna			RLEL			RMEL			RMT5			RPSI			RTB1			RTB2			RTB3			RTH1			RTH2			RTH3			RTOE			RUA1			RUA2			RUA3		
		X1	Y1	Z1	X2	Y2	Z2	X3	Y3	Z3	X4	Y4	Z4	X5	Y5	Z5	X6	Y6	Z6	X7	Y7	Z7	X8	Y8	Z8	X9	Y9	Z9	X10	Y10	Z10	X11	Y11	Z11	X12	Y12	Z12	X13	Y13	Z13	X14	Y14	Z14	X15	Y15	Z15	X16	Y16	Z16	X17	Y17	Z17	X18	Y18	Z18	X19	Y19	Z19	X20	Y20	Z20	X21	Y21	Z21	X22	Y22	Z22	X23	Y23	Z23	X24	Y24	Z24	X25	Y25	Z25	X26	Y26	Z26	X27	Y27	Z27	X28	Y28	Z28	X29	Y29	Z29	X30	Y30	Z30	X31	Y31	Z31	X32	Y32	Z32	X33	Y33	Z33	X34	Y34	Z34	X35	Y35	Z35	X36	Y36	Z36	X37	Y37	Z37	X38	Y38	Z38	X39	Y39	Z39	X40	Y40	Z40	X41	Y41	Z41	X42	Y42	Z42

189	2.69	0.684014	1.54113	-0.511704	0.825021	1.46788	-0.468165	0.750361	1.51243	-0.667369	0.791192	0.997503	-0.618841	0.601658	0.0922562	-0.553506	0.799965	1.1798	-0.682899	0.713089	1.18718	-0.815305	0.768424	1.12183	-0.698077	0.637302	1.26091	-0.883027	0.572556	1.23914	-0.842554	0.798393	0.0455647	-0.650167	0.605864	1.06262	-0.525488	0.83693	0.407167	-0.585887	0.766117	0.341541	-0.65397	0.766066	0.212451	-0.573121	0.73834	0.884701	-0.680177	0.828508	0.782222	-0.66248	0.778843	0.634742	-0.653253	0.837677	0.0704672	-0.569639	0.690902	1.43198	-0.772671	0.611797	1.37072	-0.77515	0.652992	1.3392	-0.838931	0.734003	1.5028	-0.325411	0.80199	0.985526	-0.368143	0.327472	0.348188	-0.408431	0.859643	1.14626	-0.327958	0.682877	1.14075	-0.218879	0.833015	1.07989	-0.319449	0.617509	1.1866	-0.196493	0.577788	1.17317	-0.268429	0.378279	0.157317	-0.299648	0.611373	1.05378	-0.441814	0.68042	0.387829	-0.370481	0.570369	0.380177	-0.322534	0.501448	0.303348	-0.379692	0.754173	0.848916	-0.306084	0.814579	0.715821	-0.319612	0.74438	0.607747	-0.323642	0.425418	0.137305	-0.38105	0.675445	1.39133	-0.246347	0.595452	1.32449	-0.269646	0.632868	1.28141	-0.216237
190	2.7	0.683282	1.53629	-0.514779	0.823821	1.46207	-0.46915	0.751025	1.50487	-0.670315	0.789195	0.990371	-0.618273	0.582313	0.0935778	-0.551922	0.809773	1.17142	-0.679523	0.726537	1.17598	-0.813683	0.780028	1.11333	-0.695197	0.650443	1.24696	-0.884072	0.585278	1.22351	-0.844732	0.778293	0.0457463	-0.650387	0.604755	1.05988	-0.525897	0.827765	0.401524	-0.585596	0.754754	0.338506	-0.654006	0.750405	0.20967	-0.572126	0.7349	0.881189	-0.680613	0.824831	0.778407	-0.662428	0.774292	0.630624	-0.654106	0.818022	0.0696533	-0.569604	0.694795	1.42106	-0.774773	0.617794	1.35629	-0.77846	0.661758	1.32618	-0.840916	0.731507	1.49784	-0.327353	0.799975	0.979011	-0.367357	0.339422	0.347055	-0.410167	0.852005	1.13236	-0.326386	0.674458	1.13564	-0.219589	0.822692	1.06684	-0.317216	0.609819	1.18344	-0.198914	0.570679	1.16987	-0.270882	0.394179	0.158139	-0.300061	0.608649	1.05005	-0.442066	0.694088	0.385746	-0.371199	0.58381	0.378693	-0.323495	0.514549	0.302586	-0.381207	0.754877	0.84454	-0.306387	0.820028	0.713844	-0.319109	0.75426	0.60409	-0.323311	0.440713	0.137953	-0.381879	0.670931	1.38736	-0.248606	0.590645	1.32114	-0.273693	0.626259	1.27794	-0.219173
191	2.71	0.683	1.5329	-0.517351	0.82258	1.45759	-0.470205	0.75217	1.49864	-0.672711	0.787178	0.984444	-0.617303	0.562814	0.0953631	-0.551655	0.819674	1.16459	-0.675141	0.740618	1.16693	-0.811267	0.79199	1.10651	-0.69175	0.664016	1.23513	-0.884243	0.598419	1.20999	-0.846038	0.758197	0.0458201	-0.650891	0.603053	1.05745	-0.526105	0.817591	0.396772	-0.586122	0.742369	0.336184	-0.654575	0.733939	0.207736	-0.571652	0.731568	0.87859	-0.680848	0.821114	0.775907	-0.661897	0.769201	0.627468	-0.655512	0.798122	0.0692097	-0.569871	0.698695	1.41215	-0.775982	0.624611	1.3441	-0.780462	0.670386	1.31527	-0.841927	0.729372	1.49427	-0.329153	0.797523	0.973611	-0.366197	0.352223	0.344384	-0.411361	0.84351	1.12078	-0.325057	0.66593	1.13319	-0.219885	0.811554	1.05633	-0.315095	0.601957	1.18257	-0.200816	0.563191	1.1687	-0.272796	0.412055	0.157347	-0.300766	0.605864	1.04771	-0.442226	0.70819	0.384693	-0.37177	0.597789	0.37752	-0.324347	0.528768	0.301423	-0.382457	0.753751	0.841196	-0.306439	0.825036	0.713211	-0.318704	0.763926	0.601991	-0.322942	0.45803	0.137731	-0.38304	0.666595	1.38504	-0.250448	0.585956	1.31962	-0.277547	0.619512	1.27648	-0.221845
192	2.72	0.68294	1.5307	-0.51936	0.8215	1.45432	-0.471003	0.753683	1.49389	-0.674445	0.785042	0.980216	-0.616724	0.54347	0.097916	-0.552316	0.829428	1.16004	-0.669879	0.754684	1.16021	-0.808171	0.804162	1.10174	-0.687772	0.677565	1.22573	-0.883776	0.611548	1.1989	-0.846708	0.738197	0.0456609	-0.651537	0.600454	1.05556	-0.526038	0.806743	0.393239	-0.587462	0.729656	0.334551	-0.655578	0.71711	0.206821	-0.571728	0.728226	0.876891	-0.681133	0.816979	0.773847	-0.661917	0.763096	0.625102	-0.657124	0.778314	0.0689248	-0.570484	0.703058	1.40503	-0.776722	0.632107	1.33409	-0.781129	0.67893	1.30654	-0.842137	0.72751	1.4922	-0.330711	0.794645	0.969868	-0.365468	0.365817	0.340061	-0.412122	0.834292	1.11238	-0.323808	0.656695	1.1328	-0.219757	0.799897	1.04914	-0.313237	0.5937	1.18395	-0.20202	0.555191	1.16998	-0.274075	0.431501	0.154824	-0.30189	0.602741	1.04666	-0.442237	0.722407	0.384771	-0.372039	0.612097	0.376637	-0.325112	0.543971	0.299838	-0.383401	0.750783	0.839038	-0.306622	0.829502	0.714138	-0.318361	0.773169	0.601561	-0.322621	0.477277	0.136497	-0.384383	0.662277	1.38441	-0.25198	0.581325	1.32002	-0.28085	0.612732	1.27709	-0.223992
193	2.73	0.682868	1.52955	-0.520959	0.820628	1.45234	-0.471387	0.755495	1.49066	-0.675546	0.782701	0.978083	-0.616784	0.52437	0.101281	-0.553278	0.83897	1.15836	-0.664232	0.768176	1.15576	-0.804647	0.816382	1.09929	-0.683346	0.690723	1.21873	-0.882885	0.624321	1.19021	-0.846964	0.718199	0.0453568	-0.652164	0.597341	1.0547	-0.525825	0.795461	0.391007	-0.589672	0.716637	0.333843	-0.656913	0.700285	0.206971	-0.572395	0.724836	0.876109	-0.68154	0.812144	0.771796	-0.662742	0.75583	0.623471	-0.658641	0.7586	0.0686787	-0.571307	0.708363	1.39956	-0.777274	0.639805	1.32601	-0.780845	0.687658	1.29991	-0.841835	0.725821	1.49168	-0.331997	0.791463	0.968219	-0.365403	0.380062	0.333961	-0.412596	0.82457	1.1078	-0.322167	0.646406	1.13398	-0.219313	0.788082	1.04576	-0.311608	0.584911	1.18735	-0.202515	0.546741	1.17374	-0.274817	0.452401	0.150628	-0.303466	0.599193	1.04691	-0.442123	0.736468	0.386007	-0.372032	0.626526	0.375933	-0.325819	0.559949	0.297894	-0.384193	0.746856	0.838172	-0.307028	0.833318	0.716697	-0.31798	0.781755	0.602947	-0.322387	0.498349	0.134214	-0.385872	0.657902	1.38566	-0.25322	0.576704	1.32252	-0.283498	0.605929	1.27987	-0.225418
194	2.74	0.682721	1.52948	-0.522267	0.81987	1.45184	-0.471352	0.757608	1.48894	-0.676131	0.78022	0.978169	-0.616962	0.505471	0.10525	-0.554109	0.848218	1.15983	-0.658723	0.780833	1.15355	-0.800934	0.828468	1.09933	-0.678578	0.703287	1.21392	-0.881676	0.636507	1.18372	-0.846914	0.698109	0.0450654	-0.652636	0.594341	1.05498	-0.525686	0.783707	0.389991	-0.59258	0.702905	0.334287	-0.65842	0.683696	0.208116	-0.573655	0.721382	0.876197	-0.681974	0.806554	0.769905	-0.663967	0.747527	0.62264	-0.659895	0.738839	0.0684647	-0.57213	0.71469	1.39584	-0.777649	0.647268	1.31995	-0.780361	0.696759	1.29528	-0.841261	0.724196	1.49273	-0.332966	0.788184	0.968802	-0.365454	0.394815	0.325993	-0.412922	0.814603	1.10717	-0.319728	0.635377	1.13686	-0.218645	0.776429	1.04616	-0.310017	0.575675	1.1926	-0.202368	0.538072	1.17978	-0.275134	0.474816	0.145036	-0.305308	0.595517	1.04827	-0.442045	0.750247	0.388328	-0.372017	0.640865	0.375327	-0.326476	0.576445	0.295667	-0.385013	0.743383	0.838697	-0.307293	0.836466	0.720759	-0.317476	0.789453	0.606129	-0.322267	0.52114	0.130971	-0.387562	0.653491	1.38893	-0.254067	0.572016	1.32714	-0.285586	0.599045	1.28481	-0.226074
195	2.75	0.682605	1.53065	-0.523253	0.819107	1.45292	-0.470908	0.760018	1.48876	-0.67633	0.777781	0.980319	-0.616547	0.486757	0.109591	-0.554683	0.856884	1.16441	-0.653549	0.79267	1.15367	-0.797152	0.840223	1.10196	-0.673573	0.715187	1.21112	-0.880178	0.64796	1.17922	-0.846563	0.677935	0.0449126	-0.652915	0.591898	1.05611	-0.525725	0.771107	0.389989	-0.595473	0.68815	0.335767	-0.659745	0.667417	0.210114	-0.575403	0.717792	0.877052	-0.682252	0.800275	0.768531	-0.6651	0.738297	0.62271	-0.660752	0.718989	0.0683053	-0.572799	0.721613	1.39406	-0.777745	0.654397	1.31631	-0.780508	0.706171	1.29259	-0.840485	0.722517	1.49528	-0.333556	0.785005	0.971452	-0.3649	0.410028	0.316161	-0.41322	0.804667	1.11002	-0.316472	0.624434	1.14198	-0.2177	0.765187	1.04982	-0.308273	0.566305	1.1997	-0.20163	0.529416	1.1877	-0.274987	0.498765	0.138512	-0.307017	0.592294	1.05038	-0.442142	0.76373	0.391589	-0.372352	0.654958	0.37478	-0.327092	0.593267	0.293177	-0.385891	0.741417	0.840749	-0.307043	0.839048	0.726089	-0.31684	0.796086	0.610849	-0.322299	0.545539	0.127026	-0.389441	0.64908	1.3941	-0.25445	0.567203	1.33361	-0.287182	0.592088	1.29174	-0.226043
196	2.76	0.682634	1.53318	-0.523848	0.818274	1.45553	-0.470029	0.762631	1.49019	-0.676176	0.775572	0.984231	-0.615453	0.468297	0.114198	-0.555069	0.864622	1.17176	-0.6486	0.803796	1.15626	-0.79331	0.851436	1.10719	-0.668408	0.726409	1.2103	-0.878426	0.658648	1.17669	-0.845911	0.657736	0.0449732	-0.653068	0.59014	1.05794	-0.525923	0.757191	0.390748	-0.597353	0.672382	0.337877	-0.66043	0.651349	0.212766	-0.577387	0.713988	0.878576	-0.682206	0.793446	0.767881	-0.665825	0.72819	0.623759	-0.661059	0.699168	0.0682206	-0.573265	0.728492	1.39428	-0.777509	0.66135	1.31541	-0.781734	0.715637	1.29177	-0.839433	0.720689	1.49918	-0.333762	0.782065	0.975862	-0.363663	0.425795	0.304582	-0.413606	0.794993	1.1156	-0.312731	0.614339	1.14965	-0.216308	0.754545	1.05599	-0.306255	0.557179	1.20864	-0.200337	0.520892	1.19708	-0.274217	0.524102	0.13155	-0.308209	0.590053	1.05302	-0.442443	0.776876	0.395613	-0.373156	0.668725	0.374241	-0.327669	0.610361	0.2904	-0.386692	0.741035	0.844448	-0.306328	0.841241	0.73248	-0.31613	0.80157	0.616735	-0.322502	0.5714	0.122761	-0.391307	0.644651	1.4008	-0.254483	0.562298	1.34157	-0.288209	0.585216	1.30031	-0.225469
197	2.77	0.682803	1.53703	-0.524092	0.817364	1.45948	-0.468712	0.765283	1.49324	-0.675523	0.773733	0.989571	-0.61434	0.450221	0.119103	-0.555441	0.87132	1.18135	-0.643754	0.814225	1.16133	-0.7894	0.861873	1.11494	-0.663134	0.736933	1.21149	-0.876484	0.668715	1.1762	-0.84505	0.637545	0.0452502	-0.653152	0.588983	1.06073	-0.526285	0.741834	0.392145	-0.597717	0.655834	0.34037	-0.660238	0.63523	0.215829	-0.579233	0.710014	0.88075	-0.681751	0.786319	0.768015	-0.665944	0.71735	0.625831	-0.660723	0.679573	0.068223	-0.573559	0.734849	1.39639	-0.776951	0.668235	1.31706	-0.78376	0.724862	1.29282	-0.838043	0.71866	1.50426	-0.333684	0.779472	0.981696	-0.36241	0.442326	0.291473	-0.414203	0.785734	1.12317	-0.308927	0.605328	1.15958	-0.214342	0.744632	1.06397	-0.303856	0.548572	1.21916	-0.198578	0.512548	1.20758	-0.272745	0.550569	0.124481	-0.308774	0.588873	1.05628	-0.442904	0.789494	0.400218	-0.374077	0.682105	0.37364	-0.328162	0.627765	0.287319	-0.387251	0.741507	0.849756	-0.305458	0.843183	0.739778	-0.315431	0.805922	0.62347	-0.322805	0.598514	0.118511	-0.392818	0.640177	1.40855	-0.254437	0.557416	1.35069	-0.288568	0.578661	1.31009	-0.224498
